<?xml version="1.0" encoding="UTF-8"?>
<svg id="Calque_1" data-name="Calque 1" xmlns="http://www.w3.org/2000/svg" viewBox="0 0 8.66 8.65">
  <defs>
    <style>
      .cls-1 {
        fill: #fff;
      }
    </style>
  </defs>
  <path class="cls-1" d="M4.6,8.65h-.52s-.05-.01-.08-.01C1.87,8.48.17,6.78,0,4.66c0-.03,0-.06,0-.08v-.52C.16,1.87,1.88.13,4.11,0h.46c2.2.12,3.95,1.88,4.08,4.08.06,1.06-.27,2.11-.95,2.95-.09.11-.24.12-.34.03s-.12-.23-.03-.34c.58-.71.87-1.61.84-2.51-.05-1.77-1.31-3.26-2.98-3.64C3.42.18,1.64,1.06.87,2.65s-.32,3.61,1.1,4.71c1.42,1.1,3.47,1.07,4.86-.12.11-.09.26-.08.35.02s.08.25-.03.34c-.72.63-1.61.97-2.55,1.05Z"/>
  <path class="cls-1" d="M3.12,5.91c-.1.11-.25.1-.34.01s-.1-.24,0-.34l1.22-1.25-1.24-1.21c-.1-.1-.11-.25,0-.35s.25-.1.35,0l1.24,1.21,1.22-1.25c.1-.1.25-.09.34,0s.1.24,0,.34l-1.22,1.25,1.25,1.22c.1.1.09.26,0,.34-.1.1-.25.09-.35-.01l-1.23-1.2-1.21,1.24h-.02Z"/>
</svg>