<?xml version="1.0" encoding="UTF-8"?>
<svg id="Calque_1" data-name="Calque 1" xmlns="http://www.w3.org/2000/svg" viewBox="0 0 291.6 276.7">
  <defs>
    <style>
      .cls-1 {
        fill: #fff;
      }

      .cls-2 {
        fill: #eb6432;
      }
    </style>
  </defs>
  <g>
    <path class="cls-1" d="M113.8,246.9c-.1-27.7-.1-55.3-.2-83,0-1.7,0-3.2-.1-4.8.1,29.9.1,59.7.2,89.6,0,9.2,2,16.2,5.7,20.9,3.7,4.7,8.7,7.1,15,7.1h.7c-14.1-.4-21.3-10.3-21.3-29.8h0Z"/>
    <path class="cls-1" d="M277.8,136c-6-14.7-14.4-27.1-25.4-36.7s-23.8-15.9-38.6-18c-12.8-1.8-23.6-.3-32.4,4.1-8.7,4.4-17.3,11.5-25.7,20.9,0-25.2,0-50.2.1-75.4,0-9-1.9-16.1-5.6-21-3.7-4.9-9.1-7.4-16.1-7.2-6.6.2-11.7,3-15.5,8.3-3.7,5.4-5.5,13-5.5,23,0,14.8.1,29.6.1,44.4-4.5-.8-9.3-.9-14.4-.5-7.5.7-14.6,2.4-21,5.4-6.6,2.9-12.4,6.9-17.7,11.7s-10.8,11.4-16.3,19.2c-.1-23.2-.2-46.4-.3-69.6,0-9.4-2.1-16.1-6-19.7-3.9-3.7-9.3-4.4-16.2-2-6.8,2.3-11.9,6.7-15.7,12.5C1.9,41.4,0,48.8,0,57.7v191.8c0,17.8,7.3,26.8,21.9,26.9,7,0,12.5-2.3,16.4-7.2s5.9-11.9,5.9-21.2c-.1-20.7-.2-41.3-.2-62.1-.1-17.9,1.1-30.4,3.4-37.8,3.1-8.7,7.7-15.9,14.1-21.5,6.3-5.7,13.4-9,21.3-9.8,11.8-1.2,19.9,2.5,24.2,10.8,3.8,7.3,6,17.8,6.4,31.2,0,1.6.1,3.1.1,4.8.1,27.7.1,55.3.2,83,0,19.6,7.1,29.6,21.2,29.9,5.9-.2,10.8-2.5,14.6-7.1,4-4.8,6-11.7,6.1-21v-4.9c.8,1.1,1.6,2.1,2.3,3,3.8,4.8,6.9,8.5,9.4,11.2,2.9,3.1,6.6,6.2,10.8,9.1s9.3,5.3,15.3,7.1c6,1.8,12.3,2.6,19.2,2.6,11.2,0,21.3-2.4,30.5-7.1s17.1-11.2,23.6-19.4c6.5-8.2,11.5-17.8,14.8-28.8,3.4-11,5.1-23,5.1-36.4.1-17.9-2.8-34.1-8.8-48.8h0ZM230.5,224.5c-8.1,10-17.7,15-28.9,14.8-13.1-.3-23.7-5.7-31.7-16.2-6.9-9.1-10.9-21.5-11.8-37.3-.2-2.6-.2-5.3-.2-8.1s.1-5.4.3-8c.6-10,2.4-18.9,5.5-26.4,3.8-9.6,9.1-16.8,15.8-21.5s14.2-6.7,22.7-5.9c8.2.8,15.5,4.2,21.6,9.9,6.2,5.8,10.9,13.3,14.2,22.8,3.3,9.4,4.9,20.3,4.9,32.6-.3,18.9-4.4,33.3-12.4,43.3h0Z"/>
    <path class="cls-1" d="M155.6,248.5c0,9.3-2.1,16.2-6.1,21-3.9,4.6-8.7,6.9-14.6,7.1h.7c6.8,0,12-2.5,16.2-7.6,4-5.1,6.1-12.5,6.1-22.4v-.1c-.8-1-1.6-2-2.3-3v5h0ZM157.9,177.6c0,2.7.1,5.5.2,8.1v-16.1c-.2,2.5-.2,5.2-.2,8Z"/>
  </g>
  <circle class="cls-2" cx="262" cy="29.6" r="29.6"/>
</svg>