<?xml version="1.0" encoding="UTF-8"?>
<svg id="Calque_2" data-name="Calque 2" xmlns="http://www.w3.org/2000/svg" viewBox="0 0 340.37 131.07">
  <defs>
    <style>
      .cls-1, .cls-2 {
        stroke: #000;
        stroke-miterlimit: 10;
        stroke-width: 2px;
      }

      .cls-3, .cls-2 {
        fill: #fff;
      }
    </style>
  </defs>
  <g id="Calque_1-2" data-name="Calque 1">
    <rect class="cls-2" x="1" y="1" width="338.37" height="129.07"/>
    <rect class="cls-1" x="1" y="1" width="96.51" height="129.07"/>
    <g>
      <path class="cls-3" d="M54.5,108.28l-.57-5.91c1.98-.36,3.44-1.08,4.37-2.16s1.39-2.55,1.39-4.4c0-1.96-.41-3.43-1.24-4.42s-1.79-1.49-2.9-1.49c-.71,0-1.32.21-1.81.63s-.93,1.15-1.3,2.18c-.25.71-.68,2.33-1.31,4.86-.81,3.25-1.8,5.54-2.97,6.85-1.65,1.85-3.67,2.77-6.05,2.77-1.53,0-2.96-.43-4.3-1.3s-2.35-2.12-3.05-3.75-1.05-3.61-1.05-5.92c0-3.77.83-6.61,2.48-8.52s3.86-2.91,6.62-3l.27,6.07c-1.54.26-2.66.82-3.33,1.67s-1.02,2.14-1.02,3.85.36,3.14,1.09,4.14c.46.64,1.09.96,1.87.96.71,0,1.32-.3,1.83-.9.64-.77,1.31-2.62,2.01-5.58s1.42-5.14,2.16-6.55,1.76-2.52,3.06-3.32,2.89-1.2,4.79-1.2c1.72,0,3.34.48,4.84,1.44s2.62,2.31,3.35,4.06,1.1,3.93,1.1,6.54c0,3.8-.88,6.72-2.64,8.76s-4.32,3.25-7.68,3.65Z"/>
      <path class="cls-3" d="M64.28,78.73h-30.06v-22.29h5.09v16.22h6.67v-15.09h5.07v15.09h8.18v-16.8h5.07v22.87Z"/>
      <path class="cls-3" d="M49.43,51.95c-3.06,0-5.63-.46-7.71-1.37-1.53-.68-2.91-1.62-4.12-2.8s-2.12-2.48-2.71-3.89c-.79-1.87-1.19-4.03-1.19-6.48,0-4.43,1.37-7.97,4.12-10.63s6.57-3.99,11.46-3.99,8.65,1.32,11.39,3.96,4.11,6.17,4.11,10.58-1.36,8.03-4.09,10.66-6.48,3.96-11.27,3.96ZM49.23,45.69c3.4,0,5.98-.79,7.74-2.36s2.64-3.57,2.64-5.99-.87-4.41-2.61-5.96-4.36-2.33-7.84-2.33-6.02.76-7.71,2.27-2.54,3.52-2.54,6.02.86,4.52,2.57,6.05,4.3,2.3,7.76,2.3Z"/>
    </g>
    <g>
      <path class="cls-1" d="M114.31,80.57v-29.82h6.07v24.75h15.09v5.07h-21.16Z"/>
      <path class="cls-1" d="M137.3,50.58h5.76v4.12c0,1.67-.14,2.98-.43,3.95s-.83,1.83-1.63,2.59-1.81,1.37-3.05,1.8l-1.13-2.38c1.16-.38,1.99-.91,2.48-1.58s.75-1.59.78-2.75h-2.79v-5.76Z"/>
      <path class="cls-1" d="M176.27,80.57h-6.6l-2.62-6.83h-12.02l-2.48,6.83h-6.44l11.71-30.06h6.42l12.04,30.06ZM165.09,68.67l-4.14-11.16-4.06,11.16h8.2Z"/>
      <path class="cls-1" d="M183.14,80.57v-24.98h-8.92v-5.09h23.89v5.09h-8.9v24.98h-6.07Z"/>
      <path class="cls-1" d="M202.03,80.57v-30.06h22.29v5.09h-16.22v6.67h15.09v5.07h-15.09v8.18h16.8v5.07h-22.87Z"/>
      <path class="cls-1" d="M230.2,80.57v-29.82h6.07v24.75h15.09v5.07h-21.16Z"/>
      <path class="cls-1" d="M255.51,80.57v-30.06h6.07v30.06h-6.07Z"/>
      <path class="cls-1" d="M267.36,80.57v-30.06h22.29v5.09h-16.22v6.67h15.09v5.07h-15.09v8.18h16.8v5.07h-22.87Z"/>
      <path class="cls-1" d="M295.4,80.57v-30.06h12.78c3.21,0,5.55.27,7,.81,1.46.54,2.62,1.5,3.5,2.88s1.31,2.96,1.31,4.74c0,2.26-.66,4.12-1.99,5.59s-3.31,2.4-5.95,2.78c1.31.77,2.4,1.61,3.25,2.52s2.01,2.54,3.46,4.88l3.67,5.87h-7.26l-4.39-6.54c-1.56-2.34-2.62-3.81-3.2-4.42s-1.18-1.03-1.83-1.25-1.66-.34-3.06-.34h-1.23v12.55h-6.07ZM301.47,63.22h4.49c2.91,0,4.73-.12,5.46-.37s1.29-.67,1.7-1.27.62-1.35.62-2.26c0-1.01-.27-1.83-.81-2.45s-1.3-1.02-2.29-1.18c-.49-.07-1.97-.1-4.43-.1h-4.74v7.63Z"/>
    </g>
  </g>
</svg>