<?xml version="1.0" encoding="UTF-8"?>
<svg id="Calque_1" data-name="Calque 1" xmlns="http://www.w3.org/2000/svg" viewBox="0 0 38 38">
  <path d="M11.5,0C5.17,0,0,5.17,0,11.5v15c0,6.33,5.17,11.5,11.5,11.5h15c6.33,0,11.5-5.17,11.5-11.5v-15c0-6.33-5.17-11.5-11.5-11.5h-15ZM11.5,3h15c4.71,0,8.5,3.79,8.5,8.5v15c0,4.71-3.79,8.5-8.5,8.5h-15c-4.71,0-8.5-3.79-8.5-8.5v-15C3,6.79,6.79,3,11.5,3ZM29,7c-1.1,0-2,.9-2,2s.9,2,2,2,2-.9,2-2-.9-2-2-2ZM19,9c-5.5,0-10,4.5-10,10s4.5,10,10,10,10-4.5,10-10-4.5-10-10-10ZM19,12c3.88,0,7,3.12,7,7s-3.12,7-7,7-7-3.12-7-7,3.12-7,7-7Z"/>
</svg>