<?xml version="1.0" encoding="UTF-8"?>
<svg id="Layer_1" data-name="Layer 1" xmlns="http://www.w3.org/2000/svg" viewBox="0 0 1490.15 1115.68">
  <defs>
    <style>
      .cls-1 {
        fill: #fff;
        fill-rule: evenodd;
      }
    </style>
  </defs>
  <path class="cls-1" d="M912.69,80.37c11.32-25.56,23.83-50.63,37.51-75.21,2.77-4.92,5.36-5.85,11.4-4.75,97.01,19.89,193.32,49.66,289.53,85.81,5.44,1.96,12.23,6.28,15.32,11.45,150.6,227.88,247.89,490.46,218.46,819.51-.78,12.35-3.18,14.44-11.91,20.75-110.25,78.12-227.19,140.26-355.16,176.04-13.05,3.94-17.25.8-22.58-6.93-25.83-37.85-48.71-76.69-71.19-115.67,44.84-17.34,87.35-36.64,124.9-60.11l-29.91-25.37c-81.65,50.26-218.68,83.24-373.98,83.24s-292.33-32.98-373.98-83.24l-29.91,25.37c37.55,23.48,80.06,42.77,124.9,60.11-22.48,38.97-45.36,77.81-71.19,115.67-5.33,7.73-9.53,10.87-22.58,6.93-127.97-35.78-244.91-97.92-355.16-176.04-8.73-6.31-11.13-8.4-11.91-20.75C-24.18,588.14,73.11,325.56,223.71,97.68c3.09-5.17,9.88-9.49,15.32-11.45C335.23,50.07,431.54,20.3,528.55.41c6.04-1.09,8.63-.16,11.4,4.75,13.68,24.58,26.19,49.64,37.51,75.21,49.65-8.65,106.79-13.59,167.61-13.59s117.97,4.94,167.61,13.59h0ZM496.73,469.7c-73.2,0-132.53,65.35-132.53,145.95s59.34,145.95,132.53,145.95,132.53-65.35,132.53-145.95-59.34-145.95-132.53-145.95h0ZM993.42,469.7c-73.2,0-132.53,65.35-132.53,145.95s59.34,145.95,132.53,145.95,132.53-65.35,132.53-145.95-59.34-145.95-132.53-145.95Z"/>
</svg>